<svg width="18" height="18" viewBox="0 0 18 18" fill="none" xmlns="http://www.w3.org/2000/svg">
<path d="M8.99995 0C5.57997 0 2.80838 2.77236 2.80838 6.19234C2.80838 8.79932 6.40726 14.8066 8.11729 17.514C8.30892 17.8167 8.64262 18 9.00057 18C9.35867 17.9992 9.69167 17.8161 9.88272 17.5134C11.5933 14.8054 15.1916 8.79929 15.1916 6.1923C15.1916 2.77236 12.42 0 8.99995 0ZM8.99995 9.97275C7.06583 9.97275 5.49787 8.40501 5.49787 6.47063C5.49787 4.53647 7.06579 2.96855 8.99995 2.96855C10.9341 2.96855 12.502 4.53644 12.502 6.47063C12.502 8.40501 10.9341 9.97275 8.99995 9.97275Z" fill="#F4683F"/>
</svg>
